<?xml version="1.0"?>
<svg xmlns="http://www.w3.org/2000/svg" height="512px" viewBox="0 0 512 512" width="512px" class=""><g><g id="filled_outline" data-name="filled outline"><circle cx="256" cy="256" fill="#eaeae8" r="136" data-original="#EAEAE8" class=""/><circle cx="256" cy="256" fill="#ffb5be" r="88" data-original="#FFB5BE" class="" style="fill:#F0C9C9" data-old_color="#ffb5be"/><g fill="#f16465"><path d="m291.029 260.971-35.029 35.029-35.029-35.029a16.972 16.972 0 0 1 -4.971-12 16.971 16.971 0 0 1 16.971-16.971 16.972 16.972 0 0 1 12 4.971l11.029 11.029 11.029-11.029a16.972 16.972 0 0 1 12-4.971 16.971 16.971 0 0 1 16.971 16.971 16.972 16.972 0 0 1 -4.971 12z" data-original="#F16465" class="active-path" style="fill:#4BAEA0" data-old_color="#F16465"/><path d="m440 280h32a0 0 0 0 1 0 0v64a16 16 0 0 1 -16 16 16 16 0 0 1 -16-16v-64a0 0 0 0 1 0 0z" data-original="#F16465" class="active-path" style="fill:#4BAEA0" data-old_color="#F16465"/><path d="m40 280h32a0 0 0 0 1 0 0v64a16 16 0 0 1 -16 16 16 16 0 0 1 -16-16v-64a0 0 0 0 1 0 0z" data-original="#F16465" class="active-path" style="fill:#4BAEA0" data-old_color="#F16465"/></g><path d="m456 128a32 32 0 0 0 -32 32v16a31.977 31.977 0 0 0 16 27.708v76.292h32v-76.292a31.977 31.977 0 0 0 16-27.708v-16a32 32 0 0 0 -32-32z" fill="#eaeae8" data-original="#EAEAE8" class=""/><path d="m80.4 120a8 8 0 0 0 -8 8v33.373a46.806 46.806 0 0 1 -.344 5.655 8.189 8.189 0 0 0 -.054.972h-8.002v-40a8 8 0 0 0 -16 0v40h-8.006a8.189 8.189 0 0 0 -.054-.972 46.806 46.806 0 0 1 -.344-5.655v-33.373a8 8 0 1 0 -16 0v33.373c0 2.533.94 9.675 1.444 10.565a54.625 54.625 0 0 0 14.96 28.062v80h32v-80a54.625 54.625 0 0 0 14.96-28.062c.5-.89 1.444-8.032 1.444-10.565v-33.373a8 8 0 0 0 -8.004-8z" fill="#eaeae8" data-original="#EAEAE8" class=""/><path d="m279.029 224a24.809 24.809 0 0 0 -17.656 7.313l-5.373 5.374-5.373-5.374a24.971 24.971 0 0 0 -35.313 35.315l35.029 35.029a8 8 0 0 0 11.314 0l35.029-35.029a24.971 24.971 0 0 0 -17.657-42.628zm6.344 31.313-29.373 29.374-29.373-29.374a8.97 8.97 0 1 1 12.687-12.685l11.029 11.029a8 8 0 0 0 11.314 0l11.029-11.029a8.97 8.97 0 1 1 12.687 12.685z" data-original="#000000" class="" style="fill:#3F3D56" data-old_color="#000000"/><path d="m400 256c0-79.4-64.6-144-144-144s-144 64.6-144 144 64.6 144 144 144 144-64.6 144-144zm-144 128a128 128 0 1 1 128-128 128.145 128.145 0 0 1 -128 128z" data-original="#000000" class="" style="fill:#3F3D56" data-old_color="#000000"/><path d="m256 160a96 96 0 1 0 96 96 96.108 96.108 0 0 0 -96-96zm0 176a80 80 0 1 1 80-80 80.091 80.091 0 0 1 -80 80z" data-original="#000000" class="" style="fill:#3F3D56" data-old_color="#000000"/><path d="m32 344a24 24 0 0 0 48 0v-140.824a62.166 62.166 0 0 0 16-41.8v-33.376a8 8 0 0 0 -16 0v32h-16v-32a8 8 0 0 0 -16 0v32h-16v-32a8 8 0 0 0 -16 0v33.373a62.166 62.166 0 0 0 16 41.8zm32 0a8 8 0 0 1 -16 0v-56h16zm0-72h-16v-64h16zm13.667-96a46.3 46.3 0 0 1 -9.133 16h-25.068a46.3 46.3 0 0 1 -9.133-16z" data-original="#000000" class="" style="fill:#3F3D56" data-old_color="#000000"/><path d="m456 120a40.045 40.045 0 0 0 -40 40v16a40.146 40.146 0 0 0 16 31.988v136.012a24 24 0 0 0 48 0v-136.012a40.146 40.146 0 0 0 16-31.988v-16a40.045 40.045 0 0 0 -40-40zm8 224a8 8 0 0 1 -16 0v-56h16zm16-168a24.1 24.1 0 0 1 -12.007 20.784 8 8 0 0 0 -3.993 6.924v68.292h-16v-68.292a8 8 0 0 0 -3.993-6.924 24.1 24.1 0 0 1 -12.007-20.784v-16a24 24 0 0 1 48 0z" data-original="#000000" class="" style="fill:#3F3D56" data-old_color="#000000"/></g></g> </svg>
